<mxfile host="app.diagrams.net" agent="Mozilla/5.0 (Macintosh; Intel Mac OS X 10_15_7) AppleWebKit/537.36 (KHTML, like Gecko) Chrome/139.0.0.0 Safari/537.36" version="28.1.2" pages="3">
  <diagram name="熔硫" id="gA8q7avwRrpRbDtcXes5">
    <mxGraphModel dx="630" dy="381" grid="0" gridSize="10" guides="1" tooltips="1" connect="1" arrows="1" fold="1" page="1" pageScale="1" pageWidth="827" pageHeight="1169" math="0" shadow="0">
      <root>
        <mxCell id="0" />
        <mxCell id="1" parent="0" />
        <mxCell id="WBcMtoC_5MCELgaeJtg4-2" value="&lt;font style=&quot;font-size: 7px;&quot;&gt;固体硫磺 +生石灰&lt;/font&gt;" style="rounded=1;whiteSpace=wrap;html=1;align=center;" parent="1" vertex="1">
          <mxGeometry x="196" y="299" width="59" height="17" as="geometry" />
        </mxCell>
        <mxCell id="WBcMtoC_5MCELgaeJtg4-4" value="&lt;font style=&quot;font-size: 7px;&quot;&gt;装载机&lt;/font&gt;" style="rounded=1;whiteSpace=wrap;html=1;align=center;" parent="1" vertex="1">
          <mxGeometry x="289" y="299" width="43" height="17" as="geometry" />
        </mxCell>
        <mxCell id="WBcMtoC_5MCELgaeJtg4-5" value="" style="endArrow=classic;html=1;rounded=0;exitX=1;exitY=0.5;exitDx=0;exitDy=0;entryX=0;entryY=0.5;entryDx=0;entryDy=0;fontSize=6;" parent="1" source="WBcMtoC_5MCELgaeJtg4-2" target="WBcMtoC_5MCELgaeJtg4-4" edge="1">
          <mxGeometry width="50" height="50" relative="1" as="geometry">
            <mxPoint x="344" y="446" as="sourcePoint" />
            <mxPoint x="394" y="396" as="targetPoint" />
          </mxGeometry>
        </mxCell>
        <mxCell id="WBcMtoC_5MCELgaeJtg4-6" value="&lt;font style=&quot;font-size: 7px;&quot;&gt;上料仓（V101）&lt;/font&gt;" style="rounded=1;whiteSpace=wrap;html=1;align=center;" parent="1" vertex="1">
          <mxGeometry x="368" y="299" width="54" height="17" as="geometry" />
        </mxCell>
        <mxCell id="WBcMtoC_5MCELgaeJtg4-7" value="" style="endArrow=classic;html=1;rounded=0;entryX=0;entryY=0.5;entryDx=0;entryDy=0;exitX=1;exitY=0.5;exitDx=0;exitDy=0;" parent="1" source="WBcMtoC_5MCELgaeJtg4-4" target="WBcMtoC_5MCELgaeJtg4-6" edge="1">
          <mxGeometry width="50" height="50" relative="1" as="geometry">
            <mxPoint x="331" y="309" as="sourcePoint" />
            <mxPoint x="394" y="396" as="targetPoint" />
          </mxGeometry>
        </mxCell>
        <mxCell id="WBcMtoC_5MCELgaeJtg4-8" value="&lt;span style=&quot;font-size: 7px;&quot;&gt;皮带机（L101）&lt;/span&gt;" style="rounded=1;whiteSpace=wrap;html=1;align=center;" parent="1" vertex="1">
          <mxGeometry x="449" y="300" width="54" height="17" as="geometry" />
        </mxCell>
        <mxCell id="WBcMtoC_5MCELgaeJtg4-10" value="" style="endArrow=classic;html=1;rounded=0;exitX=1;exitY=0.5;exitDx=0;exitDy=0;entryX=0;entryY=0.5;entryDx=0;entryDy=0;" parent="1" source="WBcMtoC_5MCELgaeJtg4-6" target="WBcMtoC_5MCELgaeJtg4-8" edge="1">
          <mxGeometry width="50" height="50" relative="1" as="geometry">
            <mxPoint x="383" y="446" as="sourcePoint" />
            <mxPoint x="446" y="309" as="targetPoint" />
          </mxGeometry>
        </mxCell>
        <mxCell id="WBcMtoC_5MCELgaeJtg4-13" value="&lt;span style=&quot;font-size: 7px;&quot;&gt;快速溶硫槽（V102）&lt;/span&gt;" style="rounded=1;whiteSpace=wrap;html=1;align=center;" parent="1" vertex="1">
          <mxGeometry x="530" y="300" width="67" height="17" as="geometry" />
        </mxCell>
        <mxCell id="WBcMtoC_5MCELgaeJtg4-14" value="" style="endArrow=classic;html=1;rounded=0;exitX=1;exitY=0.5;exitDx=0;exitDy=0;entryX=0;entryY=0.5;entryDx=0;entryDy=0;" parent="1" source="WBcMtoC_5MCELgaeJtg4-8" target="WBcMtoC_5MCELgaeJtg4-13" edge="1">
          <mxGeometry width="50" height="50" relative="1" as="geometry">
            <mxPoint x="374" y="458" as="sourcePoint" />
            <mxPoint x="424" y="408" as="targetPoint" />
          </mxGeometry>
        </mxCell>
        <mxCell id="WBcMtoC_5MCELgaeJtg4-15" value="&lt;span style=&quot;font-size: 7px;&quot;&gt;助滤槽（V103）&lt;/span&gt;" style="rounded=1;whiteSpace=wrap;html=1;align=center;" parent="1" vertex="1">
          <mxGeometry x="530" y="347" width="67" height="17" as="geometry" />
        </mxCell>
        <mxCell id="WBcMtoC_5MCELgaeJtg4-17" value="" style="endArrow=classic;html=1;rounded=0;exitX=0.5;exitY=1;exitDx=0;exitDy=0;entryX=0.5;entryY=0;entryDx=0;entryDy=0;" parent="1" source="WBcMtoC_5MCELgaeJtg4-13" target="WBcMtoC_5MCELgaeJtg4-15" edge="1">
          <mxGeometry width="50" height="50" relative="1" as="geometry">
            <mxPoint x="405" y="458" as="sourcePoint" />
            <mxPoint x="455" y="408" as="targetPoint" />
          </mxGeometry>
        </mxCell>
        <mxCell id="WBcMtoC_5MCELgaeJtg4-19" value="&lt;span style=&quot;font-size: 7px;&quot;&gt;适量硅藻土&lt;/span&gt;" style="rounded=1;whiteSpace=wrap;html=1;align=center;" parent="1" vertex="1">
          <mxGeometry x="432" y="347" width="67" height="17" as="geometry" />
        </mxCell>
        <mxCell id="WBcMtoC_5MCELgaeJtg4-20" value="" style="endArrow=classic;html=1;rounded=0;exitX=1;exitY=0.5;exitDx=0;exitDy=0;entryX=0;entryY=0.5;entryDx=0;entryDy=0;" parent="1" source="WBcMtoC_5MCELgaeJtg4-19" target="WBcMtoC_5MCELgaeJtg4-15" edge="1">
          <mxGeometry width="50" height="50" relative="1" as="geometry">
            <mxPoint x="405" y="458" as="sourcePoint" />
            <mxPoint x="527" y="354" as="targetPoint" />
          </mxGeometry>
        </mxCell>
        <mxCell id="WBcMtoC_5MCELgaeJtg4-21" value="&lt;span style=&quot;font-size: 7px;&quot;&gt;助滤、过滤泵（P101）&lt;/span&gt;" style="rounded=1;whiteSpace=wrap;html=1;align=center;" parent="1" vertex="1">
          <mxGeometry x="530" y="391" width="67" height="32" as="geometry" />
        </mxCell>
        <mxCell id="WBcMtoC_5MCELgaeJtg4-22" value="" style="endArrow=classic;html=1;rounded=0;exitX=0.5;exitY=1;exitDx=0;exitDy=0;entryX=0.5;entryY=0;entryDx=0;entryDy=0;" parent="1" source="WBcMtoC_5MCELgaeJtg4-15" target="WBcMtoC_5MCELgaeJtg4-21" edge="1">
          <mxGeometry width="50" height="50" relative="1" as="geometry">
            <mxPoint x="405" y="458" as="sourcePoint" />
            <mxPoint x="455" y="408" as="targetPoint" />
          </mxGeometry>
        </mxCell>
        <mxCell id="WBcMtoC_5MCELgaeJtg4-23" value="&lt;span style=&quot;font-size: 7px;&quot;&gt;液流过滤机（X101）&lt;/span&gt;" style="rounded=1;whiteSpace=wrap;html=1;align=center;" parent="1" vertex="1">
          <mxGeometry x="530" y="443" width="67" height="20" as="geometry" />
        </mxCell>
        <mxCell id="WBcMtoC_5MCELgaeJtg4-24" value="" style="endArrow=classic;html=1;rounded=0;exitX=0.5;exitY=1;exitDx=0;exitDy=0;entryX=0.5;entryY=0;entryDx=0;entryDy=0;" parent="1" source="WBcMtoC_5MCELgaeJtg4-21" target="WBcMtoC_5MCELgaeJtg4-23" edge="1">
          <mxGeometry width="50" height="50" relative="1" as="geometry">
            <mxPoint x="405" y="458" as="sourcePoint" />
            <mxPoint x="455" y="408" as="targetPoint" />
          </mxGeometry>
        </mxCell>
        <mxCell id="WBcMtoC_5MCELgaeJtg4-25" value="&lt;span style=&quot;font-size: 7px;&quot;&gt;精流槽（V104）&lt;/span&gt;" style="rounded=1;whiteSpace=wrap;html=1;align=center;" parent="1" vertex="1">
          <mxGeometry x="530" y="487" width="67" height="20" as="geometry" />
        </mxCell>
        <mxCell id="WBcMtoC_5MCELgaeJtg4-26" value="" style="endArrow=classic;html=1;rounded=0;exitX=0.5;exitY=1;exitDx=0;exitDy=0;entryX=0.5;entryY=0;entryDx=0;entryDy=0;" parent="1" source="WBcMtoC_5MCELgaeJtg4-23" target="WBcMtoC_5MCELgaeJtg4-25" edge="1">
          <mxGeometry width="50" height="50" relative="1" as="geometry">
            <mxPoint x="405" y="458" as="sourcePoint" />
            <mxPoint x="455" y="408" as="targetPoint" />
          </mxGeometry>
        </mxCell>
        <mxCell id="WBcMtoC_5MCELgaeJtg4-27" value="&lt;span style=&quot;font-size: 7px;&quot;&gt;精流输送泵（P103a,b）&lt;/span&gt;" style="rounded=1;whiteSpace=wrap;html=1;align=center;" parent="1" vertex="1">
          <mxGeometry x="432" y="480.5" width="67" height="33" as="geometry" />
        </mxCell>
        <mxCell id="WBcMtoC_5MCELgaeJtg4-29" value="" style="endArrow=classic;html=1;rounded=0;exitX=0;exitY=0.5;exitDx=0;exitDy=0;entryX=1;entryY=0.5;entryDx=0;entryDy=0;" parent="1" source="WBcMtoC_5MCELgaeJtg4-25" target="WBcMtoC_5MCELgaeJtg4-27" edge="1">
          <mxGeometry width="50" height="50" relative="1" as="geometry">
            <mxPoint x="405" y="458" as="sourcePoint" />
            <mxPoint x="455" y="408" as="targetPoint" />
          </mxGeometry>
        </mxCell>
        <mxCell id="WBcMtoC_5MCELgaeJtg4-30" value="&lt;span style=&quot;font-size: 7px;&quot;&gt;焚硫炉（F201）&lt;/span&gt;" style="rounded=1;whiteSpace=wrap;html=1;align=center;" parent="1" vertex="1">
          <mxGeometry x="334" y="487" width="67" height="20" as="geometry" />
        </mxCell>
        <mxCell id="WBcMtoC_5MCELgaeJtg4-31" value="" style="endArrow=classic;html=1;rounded=0;exitX=0;exitY=0.5;exitDx=0;exitDy=0;entryX=1;entryY=0.5;entryDx=0;entryDy=0;" parent="1" source="WBcMtoC_5MCELgaeJtg4-27" target="WBcMtoC_5MCELgaeJtg4-30" edge="1">
          <mxGeometry width="50" height="50" relative="1" as="geometry">
            <mxPoint x="405" y="458" as="sourcePoint" />
            <mxPoint x="455" y="408" as="targetPoint" />
          </mxGeometry>
        </mxCell>
        <mxCell id="WBcMtoC_5MCELgaeJtg4-32" value="&lt;span style=&quot;font-size: 7px;&quot;&gt;冷凝水收集槽（V2005）&lt;/span&gt;" style="rounded=1;whiteSpace=wrap;html=1;align=center;" parent="1" vertex="1">
          <mxGeometry x="332" y="525" width="67" height="38" as="geometry" />
        </mxCell>
        <mxCell id="WBcMtoC_5MCELgaeJtg4-34" value="&lt;span style=&quot;font-size: 7px;&quot;&gt;冷凝水输送泵（P104a,b）&lt;/span&gt;" style="rounded=1;whiteSpace=wrap;html=1;align=center;" parent="1" vertex="1">
          <mxGeometry x="207" y="525" width="67" height="38" as="geometry" />
        </mxCell>
        <mxCell id="WBcMtoC_5MCELgaeJtg4-36" value="&lt;span style=&quot;font-size: 7px;&quot;&gt;低压蒸汽管网&lt;/span&gt;" style="rounded=1;whiteSpace=wrap;html=1;align=center;" parent="1" vertex="1">
          <mxGeometry x="196" y="271" width="67" height="17" as="geometry" />
        </mxCell>
        <mxCell id="WBcMtoC_5MCELgaeJtg4-40" value="" style="endArrow=classic;html=1;rounded=0;exitX=1;exitY=0.5;exitDx=0;exitDy=0;entryX=1;entryY=0.5;entryDx=0;entryDy=0;dashed=1;" parent="1" source="WBcMtoC_5MCELgaeJtg4-36" target="WBcMtoC_5MCELgaeJtg4-32" edge="1">
          <mxGeometry width="50" height="50" relative="1" as="geometry">
            <mxPoint x="405" y="458" as="sourcePoint" />
            <mxPoint x="667" y="292" as="targetPoint" />
            <Array as="points">
              <mxPoint x="623" y="280" />
              <mxPoint x="623" y="544" />
            </Array>
          </mxGeometry>
        </mxCell>
        <mxCell id="WBcMtoC_5MCELgaeJtg4-41" value="" style="endArrow=classic;html=1;rounded=0;entryX=1;entryY=0.5;entryDx=0;entryDy=0;exitX=0;exitY=0.5;exitDx=0;exitDy=0;" parent="1" source="WBcMtoC_5MCELgaeJtg4-32" target="WBcMtoC_5MCELgaeJtg4-34" edge="1">
          <mxGeometry width="50" height="50" relative="1" as="geometry">
            <mxPoint x="405" y="458" as="sourcePoint" />
            <mxPoint x="455" y="408" as="targetPoint" />
          </mxGeometry>
        </mxCell>
        <mxCell id="6eRk4w6924ohL_UdEgZ7-1" value="&lt;div&gt;&lt;span style=&quot;font-family: SimSun;&quot;&gt;&lt;font style=&quot;font-size: 10px;&quot;&gt;1.1 岗位职责&lt;br&gt;&lt;/font&gt;&lt;/span&gt;&lt;/div&gt;&lt;div&gt;&lt;span style=&quot;font-family: SimSun;&quot;&gt;&lt;font style=&quot;font-size: 10px;&quot;&gt;负责本岗位范围内所有设备安全运转，按章操作，搞好本岗位的安全文明生产，&lt;br&gt;&lt;/font&gt;&lt;/span&gt;&lt;/div&gt;&lt;div&gt;&lt;span style=&quot;font-family: SimSun;&quot;&gt;&lt;font style=&quot;font-size: 10px;&quot;&gt;保证液硫过滤质量和液硫的正常输送。&lt;br&gt;&lt;/font&gt;&lt;/span&gt;&lt;/div&gt;&lt;div&gt;&lt;span style=&quot;font-family: SimSun;&quot;&gt;&lt;font style=&quot;font-size: 10px;&quot;&gt;1.2 工作任务&lt;br&gt;&lt;/font&gt;&lt;/span&gt;&lt;/div&gt;&lt;div&gt;&lt;span style=&quot;font-family: SimSun;&quot;&gt;&lt;font style=&quot;font-size: 10px;&quot;&gt;1.2.1 负责原料硫磺入库的接、卸，并做好计量；&lt;br&gt;&lt;/font&gt;&lt;/span&gt;&lt;/div&gt;&lt;div&gt;&lt;span style=&quot;font-family: SimSun;&quot;&gt;&lt;font style=&quot;font-size: 10px;&quot;&gt;1.2.2 将固体硫磺经过熔化、过滤、储存，为焚硫炉提供合格液体硫磺；&lt;br&gt;&lt;/font&gt;&lt;/span&gt;&lt;/div&gt;&lt;div&gt;&lt;span style=&quot;font-family: SimSun;&quot;&gt;&lt;font style=&quot;font-size: 10px;&quot;&gt;1.2.3 及时清除熔硫槽中固体杂质，及时加生石灰中和熔硫槽中浮酸；&lt;br&gt;&lt;/font&gt;&lt;/span&gt;&lt;/div&gt;&lt;div&gt;&lt;span style=&quot;font-family: SimSun;&quot;&gt;&lt;font style=&quot;font-size: 10px;&quot;&gt;1.2.4 保持各槽中液硫温度、液位在规定的范围内，维护好岗位内的各机电设&lt;/font&gt;&lt;/span&gt;&lt;span style=&quot;font-size: 10px; font-family: SimSun; background-color: transparent; color: light-dark(rgb(0, 0, 0), rgb(255, 255, 255));&quot;&gt;备、仪表；&lt;/span&gt;&lt;/div&gt;&lt;div&gt;&lt;span style=&quot;font-family: SimSun;&quot;&gt;&lt;font style=&quot;font-size: 10px;&quot;&gt;1.2.5 密切与关联岗位联系，防范磺库与熔硫火灾；&lt;br&gt;&lt;/font&gt;&lt;/span&gt;&lt;/div&gt;&lt;div style=&quot;&quot;&gt;&lt;span style=&quot;font-family: SimSun;&quot;&gt;&lt;font style=&quot;font-size: 10px;&quot;&gt;1.2.6 保持区域和设备的清洁卫生，下班前清擦一次；&lt;br&gt;&lt;/font&gt;&lt;/span&gt;&lt;/div&gt;&lt;div&gt;&lt;span style=&quot;font-family: SimSun;&quot;&gt;&lt;font style=&quot;font-size: 10px;&quot;&gt;1.2.7 包装袋整理打包入库。&lt;br&gt;&lt;/font&gt;&lt;/span&gt;&lt;/div&gt;&lt;div&gt;&lt;span style=&quot;font-family: SimSun;&quot;&gt;&lt;font style=&quot;font-size: 10px;&quot;&gt;1. 3 管辖范围&lt;br&gt;&lt;/font&gt;&lt;/span&gt;&lt;/div&gt;&lt;div&gt;&lt;span style=&quot;font-family: SimSun;&quot;&gt;&lt;font style=&quot;font-size: 10px;&quot;&gt;从原料硫磺入库到进入焚硫炉止，此范围内的一切建筑物、设备、仪表、电气、&lt;/font&gt;&lt;/span&gt;&lt;span style=&quot;font-size: 10px; font-family: SimSun; background-color: transparent; color: light-dark(rgb(0, 0, 0), rgb(255, 255, 255));&quot;&gt;管线、阀门等。&amp;nbsp;&lt;/span&gt;&lt;/div&gt;&lt;div&gt;&lt;br&gt;&lt;/div&gt;" style="text;html=1;align=left;verticalAlign=middle;whiteSpace=wrap;rounded=0;" vertex="1" parent="1">
          <mxGeometry x="198" y="30" width="431.5" height="227" as="geometry" />
        </mxCell>
        <mxCell id="6eRk4w6924ohL_UdEgZ7-2" value="&lt;div&gt;&lt;font style=&quot;font-size: 14px;&quot;&gt;工艺流程&lt;/font&gt;&lt;br&gt;&lt;div&gt;&lt;span style=&quot;font-family: SimSun;&quot;&gt;&lt;font style=&quot;font-size: 10px;&quot;&gt;&lt;span style=&quot;white-space: pre;&quot;&gt;&#x9;&lt;/span&gt;将固体硫磺与适量的生石灰混合后用装载机铲入上料仓（V101）中，经过皮带&lt;br&gt;&lt;/font&gt;&lt;/span&gt;&lt;/div&gt;&lt;div&gt;&lt;span style=&quot;font-family: SimSun;&quot;&gt;&lt;font style=&quot;font-size: 10px;&quot;&gt;机（L101）将固体硫磺送入快速熔硫槽（V102）内，熔化后的液硫从溢流口溢流至&lt;br&gt;&lt;/font&gt;&lt;/span&gt;&lt;/div&gt;&lt;div&gt;&lt;span style=&quot;font-family: SimSun;&quot;&gt;&lt;font style=&quot;font-size: 10px;&quot;&gt;助滤槽（V103）内，向助滤槽内加入适量硅藻土。液硫由助滤、过滤泵（P101）输&lt;br&gt;&lt;/font&gt;&lt;/span&gt;&lt;/div&gt;&lt;div&gt;&lt;span style=&quot;font-family: SimSun;&quot;&gt;&lt;font style=&quot;font-size: 10px;&quot;&gt;送到液硫过滤机（X101）过滤，滤后的精硫流至精硫槽（V104），经精硫输送泵&lt;br&gt;&lt;/font&gt;&lt;/span&gt;&lt;/div&gt;&lt;div&gt;&lt;span style=&quot;font-family: SimSun;&quot;&gt;&lt;font style=&quot;font-size: 10px;&quot;&gt;（P103a,b）送到焚硫炉（F201）内燃烧。&lt;br&gt;&lt;/font&gt;&lt;/span&gt;&lt;/div&gt;&lt;div&gt;&lt;span style=&quot;font-family: SimSun;&quot;&gt;&lt;font style=&quot;font-size: 10px;&quot;&gt;&lt;span style=&quot;white-space: pre;&quot;&gt;&#x9;&lt;/span&gt;本岗位所有低压蒸汽来自低压蒸汽管网，蒸汽冷凝水集中排入冷凝水收集槽&lt;br&gt;&lt;/font&gt;&lt;/span&gt;&lt;/div&gt;&lt;div&gt;&lt;span style=&quot;font-family: SimSun;&quot;&gt;&lt;font style=&quot;font-size: 10px;&quot;&gt;（V2005）并由冷凝水输送泵（P104a,b）外排回用。&lt;/font&gt;&lt;/span&gt;&lt;/div&gt;&lt;br&gt;&lt;/div&gt;" style="text;html=1;align=left;verticalAlign=middle;whiteSpace=wrap;rounded=0;" vertex="1" parent="1">
          <mxGeometry x="196" y="606" width="378" height="138" as="geometry" />
        </mxCell>
      </root>
    </mxGraphModel>
  </diagram>
  <diagram id="FSTNYQ_2ghUaJdWXUDka" name="焚硫">
    <mxGraphModel dx="536" dy="381" grid="0" gridSize="10" guides="1" tooltips="1" connect="1" arrows="1" fold="1" page="1" pageScale="1" pageWidth="827" pageHeight="1169" math="0" shadow="0">
      <root>
        <mxCell id="0" />
        <mxCell id="1" parent="0" />
        <mxCell id="fjx8Qkg-eum4bkmbfZHA-3" value="" style="endArrow=classic;html=1;rounded=0;exitX=1;exitY=0.5;exitDx=0;exitDy=0;fontSize=6;entryX=0;entryY=0.5;entryDx=0;entryDy=0;" edge="1" parent="1" source="n6LXnC0xRCPWYRdvw0Mk-1" target="n6LXnC0xRCPWYRdvw0Mk-2">
          <mxGeometry width="50" height="50" relative="1" as="geometry">
            <mxPoint x="264" y="218.5" as="sourcePoint" />
            <mxPoint x="298" y="219" as="targetPoint" />
          </mxGeometry>
        </mxCell>
        <mxCell id="fjx8Qkg-eum4bkmbfZHA-4" value="&lt;font style=&quot;font-size: 7px;&quot;&gt;主风机（C301）&lt;/font&gt;" style="rounded=1;whiteSpace=wrap;html=1;align=center;" vertex="1" parent="1">
          <mxGeometry x="429" y="210" width="54" height="17" as="geometry" />
        </mxCell>
        <mxCell id="fjx8Qkg-eum4bkmbfZHA-5" value="" style="endArrow=classic;html=1;rounded=0;entryX=0;entryY=0.5;entryDx=0;entryDy=0;exitX=1;exitY=0.5;exitDx=0;exitDy=0;" edge="1" parent="1" source="n6LXnC0xRCPWYRdvw0Mk-2" target="fjx8Qkg-eum4bkmbfZHA-4">
          <mxGeometry width="50" height="50" relative="1" as="geometry">
            <mxPoint x="393" y="219" as="sourcePoint" />
            <mxPoint x="455" y="307" as="targetPoint" />
          </mxGeometry>
        </mxCell>
        <mxCell id="fjx8Qkg-eum4bkmbfZHA-6" value="&lt;span style=&quot;font-size: 7px;&quot;&gt;干燥塔（T401）&lt;/span&gt;" style="rounded=1;whiteSpace=wrap;html=1;align=center;" vertex="1" parent="1">
          <mxGeometry x="510" y="211" width="54" height="17" as="geometry" />
        </mxCell>
        <mxCell id="fjx8Qkg-eum4bkmbfZHA-7" value="" style="endArrow=classic;html=1;rounded=0;exitX=1;exitY=0.5;exitDx=0;exitDy=0;entryX=0;entryY=0.5;entryDx=0;entryDy=0;" edge="1" parent="1" source="fjx8Qkg-eum4bkmbfZHA-4" target="fjx8Qkg-eum4bkmbfZHA-6">
          <mxGeometry width="50" height="50" relative="1" as="geometry">
            <mxPoint x="444" y="357" as="sourcePoint" />
            <mxPoint x="507" y="220" as="targetPoint" />
          </mxGeometry>
        </mxCell>
        <mxCell id="fjx8Qkg-eum4bkmbfZHA-8" value="&lt;span style=&quot;font-size: 7px;&quot;&gt;废热锅炉（F202）&lt;/span&gt;" style="rounded=1;whiteSpace=wrap;html=1;align=center;" vertex="1" parent="1">
          <mxGeometry x="504" y="277" width="67" height="17" as="geometry" />
        </mxCell>
        <mxCell id="fjx8Qkg-eum4bkmbfZHA-10" value="&lt;span style=&quot;font-size: 7px;&quot;&gt;高温旁路阀（E301）&lt;/span&gt;" style="rounded=1;whiteSpace=wrap;html=1;align=center;" vertex="1" parent="1">
          <mxGeometry x="504" y="345" width="67" height="17" as="geometry" />
        </mxCell>
        <mxCell id="fjx8Qkg-eum4bkmbfZHA-11" value="" style="endArrow=classic;html=1;rounded=0;exitX=0.5;exitY=1;exitDx=0;exitDy=0;entryX=0.5;entryY=0;entryDx=0;entryDy=0;" edge="1" parent="1" source="fjx8Qkg-eum4bkmbfZHA-8" target="fjx8Qkg-eum4bkmbfZHA-10">
          <mxGeometry width="50" height="50" relative="1" as="geometry">
            <mxPoint x="443" y="445" as="sourcePoint" />
            <mxPoint x="493" y="395" as="targetPoint" />
          </mxGeometry>
        </mxCell>
        <mxCell id="n6LXnC0xRCPWYRdvw0Mk-1" value="&lt;span style=&quot;font-size: 7px;&quot;&gt;精流输送泵（P103a,b）&lt;/span&gt;" style="rounded=1;whiteSpace=wrap;html=1;align=center;" vertex="1" parent="1">
          <mxGeometry x="227" y="202" width="67" height="33" as="geometry" />
        </mxCell>
        <mxCell id="n6LXnC0xRCPWYRdvw0Mk-2" value="&lt;span style=&quot;font-size: 7px;&quot;&gt;焚硫炉（F201）&lt;/span&gt;" style="rounded=1;whiteSpace=wrap;html=1;align=center;" vertex="1" parent="1">
          <mxGeometry x="328" y="208.5" width="67" height="20" as="geometry" />
        </mxCell>
        <mxCell id="n6LXnC0xRCPWYRdvw0Mk-9" value="输送至磺枪&lt;div&gt;经机械雾化喷入&lt;/div&gt;" style="text;html=1;align=center;verticalAlign=middle;whiteSpace=wrap;rounded=0;fontSize=10;" vertex="1" parent="1">
          <mxGeometry x="266" y="158" width="89" height="30" as="geometry" />
        </mxCell>
        <mxCell id="n6LXnC0xRCPWYRdvw0Mk-10" value="&lt;div&gt;&lt;span style=&quot;font-family: 宋体;&quot;&gt;&lt;font&gt;&lt;b&gt;由主风机（C301）经干燥塔（T401）干燥后的空气混合焚烧&lt;/b&gt;&lt;/font&gt;&lt;/span&gt;&lt;/div&gt;" style="text;html=1;align=center;verticalAlign=middle;whiteSpace=wrap;rounded=0;fontSize=10;" vertex="1" parent="1">
          <mxGeometry x="414" y="158" width="156" height="30" as="geometry" />
        </mxCell>
        <mxCell id="n6LXnC0xRCPWYRdvw0Mk-11" value="" style="endArrow=classic;html=1;rounded=0;exitX=0.5;exitY=1;exitDx=0;exitDy=0;entryX=0.5;entryY=0;entryDx=0;entryDy=0;" edge="1" parent="1" source="fjx8Qkg-eum4bkmbfZHA-6" target="fjx8Qkg-eum4bkmbfZHA-8">
          <mxGeometry width="50" height="50" relative="1" as="geometry">
            <mxPoint x="408" y="352" as="sourcePoint" />
            <mxPoint x="458" y="302" as="targetPoint" />
          </mxGeometry>
        </mxCell>
        <mxCell id="n6LXnC0xRCPWYRdvw0Mk-12" value="&lt;div&gt;&lt;font&gt;&lt;b&gt;&lt;span style=&quot;font-family: 宋体;&quot;&gt;生成含 SO&lt;/span&gt;&lt;span style=&quot;font-family: 宋体;&quot;&gt;2&lt;/span&gt;&lt;span style=&quot;font-family: 宋体;&quot;&gt;9-10%&lt;br&gt;&lt;/span&gt;&lt;/b&gt;&lt;/font&gt;&lt;/div&gt;&lt;div&gt;&lt;span style=&quot;font-family: 宋体;&quot;&gt;&lt;font&gt;&lt;b&gt;约 1000℃的高温炉气进入废热锅炉（F202）回收热量&lt;/b&gt;&lt;/font&gt;&lt;/span&gt;&lt;/div&gt;" style="text;html=1;align=center;verticalAlign=middle;whiteSpace=wrap;rounded=0;fontSize=10;" vertex="1" parent="1">
          <mxGeometry x="545" y="238" width="156" height="30" as="geometry" />
        </mxCell>
        <mxCell id="n6LXnC0xRCPWYRdvw0Mk-13" value="&lt;div&gt;&lt;span style=&quot;font-family: 宋体;&quot;&gt;&lt;font&gt;&lt;b&gt;另一部分高温炉气通过 E301&lt;br/&gt;&lt;/b&gt;&lt;/font&gt;&lt;/span&gt;&lt;/div&gt;&lt;div&gt;&lt;span style=&quot;font-family: 宋体;&quot;&gt;&lt;font&gt;&lt;b&gt;高温旁路阀，调节 E301 出口温度在 420℃左右&lt;/b&gt;&lt;/font&gt;&lt;/span&gt;&lt;/div&gt;" style="text;html=1;align=center;verticalAlign=middle;whiteSpace=wrap;rounded=0;fontSize=10;" vertex="1" parent="1">
          <mxGeometry x="550" y="305" width="156" height="30" as="geometry" />
        </mxCell>
        <mxCell id="n6LXnC0xRCPWYRdvw0Mk-14" value="&lt;span style=&quot;font-size: 7px;&quot;&gt;F201&lt;/span&gt;" style="rounded=1;whiteSpace=wrap;html=1;align=center;" vertex="1" parent="1">
          <mxGeometry x="504" y="405" width="67" height="17" as="geometry" />
        </mxCell>
        <mxCell id="n6LXnC0xRCPWYRdvw0Mk-15" value="" style="endArrow=classic;html=1;rounded=0;entryX=0.5;entryY=0;entryDx=0;entryDy=0;exitX=0.5;exitY=1;exitDx=0;exitDy=0;" edge="1" parent="1" source="fjx8Qkg-eum4bkmbfZHA-10" target="n6LXnC0xRCPWYRdvw0Mk-14">
          <mxGeometry width="50" height="50" relative="1" as="geometry">
            <mxPoint x="473" y="355" as="sourcePoint" />
            <mxPoint x="523" y="305" as="targetPoint" />
          </mxGeometry>
        </mxCell>
        <mxCell id="n6LXnC0xRCPWYRdvw0Mk-16" value="&lt;div&gt;&lt;span style=&quot;font-family: 宋体;&quot;&gt;&lt;font&gt;&lt;b&gt;在 F201 中后部加入二次空气，强&lt;br/&gt;&lt;/b&gt;&lt;/font&gt;&lt;/span&gt;&lt;/div&gt;&lt;div&gt;&lt;span style=&quot;font-family: 宋体;&quot;&gt;&lt;font&gt;&lt;b&gt;化燃烧。&lt;/b&gt;&lt;/font&gt;&lt;/span&gt;&lt;/div&gt;" style="text;html=1;align=center;verticalAlign=middle;whiteSpace=wrap;rounded=0;fontSize=10;" vertex="1" parent="1">
          <mxGeometry x="550" y="367" width="156" height="30" as="geometry" />
        </mxCell>
      </root>
    </mxGraphModel>
  </diagram>
  <diagram id="TOacQm-d55D3TUGy7DyB" name="转化">
    <mxGraphModel dx="536" dy="381" grid="0" gridSize="10" guides="1" tooltips="1" connect="1" arrows="1" fold="1" page="1" pageScale="1" pageWidth="827" pageHeight="1169" math="0" shadow="0">
      <root>
        <mxCell id="0" />
        <mxCell id="1" parent="0" />
        <mxCell id="GKP_I2jnKU_a-lKC11bR-1" value="&lt;span style=&quot;font-size: 7px;&quot;&gt;余热锅炉（F202）&lt;/span&gt;" style="rounded=1;whiteSpace=wrap;html=1;align=center;" vertex="1" parent="1">
          <mxGeometry x="240" y="205" width="59" height="17" as="geometry" />
        </mxCell>
        <mxCell id="GKP_I2jnKU_a-lKC11bR-2" value="&lt;font style=&quot;font-size: 7px;&quot;&gt;转化器（R301）&lt;/font&gt;" style="rounded=1;whiteSpace=wrap;html=1;align=center;" vertex="1" parent="1">
          <mxGeometry x="358" y="205" width="56" height="17" as="geometry" />
        </mxCell>
        <mxCell id="GKP_I2jnKU_a-lKC11bR-3" value="" style="endArrow=classic;html=1;rounded=0;exitX=1;exitY=0.5;exitDx=0;exitDy=0;entryX=0;entryY=0.5;entryDx=0;entryDy=0;fontSize=6;" edge="1" parent="1" source="GKP_I2jnKU_a-lKC11bR-1" target="GKP_I2jnKU_a-lKC11bR-2">
          <mxGeometry width="50" height="50" relative="1" as="geometry">
            <mxPoint x="398" y="352" as="sourcePoint" />
            <mxPoint x="448" y="302" as="targetPoint" />
          </mxGeometry>
        </mxCell>
        <mxCell id="GKP_I2jnKU_a-lKC11bR-4" value="&lt;font style=&quot;font-size: 7px;&quot;&gt;高温过热器（E301）&lt;/font&gt;" style="rounded=1;whiteSpace=wrap;html=1;align=center;" vertex="1" parent="1">
          <mxGeometry x="450" y="197" width="54" height="33" as="geometry" />
        </mxCell>
        <mxCell id="GKP_I2jnKU_a-lKC11bR-5" value="" style="endArrow=classic;html=1;rounded=0;entryX=0;entryY=0.5;entryDx=0;entryDy=0;exitX=1;exitY=0.5;exitDx=0;exitDy=0;" edge="1" parent="1" source="GKP_I2jnKU_a-lKC11bR-2" target="GKP_I2jnKU_a-lKC11bR-4">
          <mxGeometry width="50" height="50" relative="1" as="geometry">
            <mxPoint x="391" y="215" as="sourcePoint" />
            <mxPoint x="454" y="302" as="targetPoint" />
          </mxGeometry>
        </mxCell>
        <mxCell id="GKP_I2jnKU_a-lKC11bR-6" value="&lt;span style=&quot;font-size: 7px;&quot;&gt;第二换热器（E302）&lt;/span&gt;" style="rounded=1;whiteSpace=wrap;html=1;align=center;" vertex="1" parent="1">
          <mxGeometry x="571" y="198" width="54" height="32" as="geometry" />
        </mxCell>
        <mxCell id="GKP_I2jnKU_a-lKC11bR-7" value="" style="endArrow=classic;html=1;rounded=0;exitX=1;exitY=0.5;exitDx=0;exitDy=0;entryX=0;entryY=0.5;entryDx=0;entryDy=0;" edge="1" parent="1" source="GKP_I2jnKU_a-lKC11bR-4" target="GKP_I2jnKU_a-lKC11bR-6">
          <mxGeometry width="50" height="50" relative="1" as="geometry">
            <mxPoint x="443" y="352" as="sourcePoint" />
            <mxPoint x="506" y="215" as="targetPoint" />
          </mxGeometry>
        </mxCell>
        <mxCell id="GKP_I2jnKU_a-lKC11bR-8" value="&lt;span style=&quot;font-size: 7px;&quot;&gt;快速溶硫槽（V102）&lt;/span&gt;" style="rounded=1;whiteSpace=wrap;html=1;align=center;" vertex="1" parent="1">
          <mxGeometry x="447" y="277" width="67" height="17" as="geometry" />
        </mxCell>
        <mxCell id="GKP_I2jnKU_a-lKC11bR-10" value="&lt;span style=&quot;font-size: 7px;&quot;&gt;助滤槽（V103）&lt;/span&gt;" style="rounded=1;whiteSpace=wrap;html=1;align=center;" vertex="1" parent="1">
          <mxGeometry x="447" y="324" width="67" height="17" as="geometry" />
        </mxCell>
        <mxCell id="GKP_I2jnKU_a-lKC11bR-11" value="" style="endArrow=classic;html=1;rounded=0;exitX=0.5;exitY=1;exitDx=0;exitDy=0;entryX=0.5;entryY=0;entryDx=0;entryDy=0;" edge="1" parent="1" source="GKP_I2jnKU_a-lKC11bR-8" target="GKP_I2jnKU_a-lKC11bR-10">
          <mxGeometry width="50" height="50" relative="1" as="geometry">
            <mxPoint x="322" y="435" as="sourcePoint" />
            <mxPoint x="372" y="385" as="targetPoint" />
          </mxGeometry>
        </mxCell>
        <mxCell id="GKP_I2jnKU_a-lKC11bR-14" value="&lt;span style=&quot;font-size: 7px;&quot;&gt;助滤、过滤泵（P101）&lt;/span&gt;" style="rounded=1;whiteSpace=wrap;html=1;align=center;" vertex="1" parent="1">
          <mxGeometry x="447" y="368" width="67" height="32" as="geometry" />
        </mxCell>
        <mxCell id="GKP_I2jnKU_a-lKC11bR-15" value="" style="endArrow=classic;html=1;rounded=0;exitX=0.5;exitY=1;exitDx=0;exitDy=0;entryX=0.5;entryY=0;entryDx=0;entryDy=0;" edge="1" parent="1" source="GKP_I2jnKU_a-lKC11bR-10" target="GKP_I2jnKU_a-lKC11bR-14">
          <mxGeometry width="50" height="50" relative="1" as="geometry">
            <mxPoint x="322" y="435" as="sourcePoint" />
            <mxPoint x="372" y="385" as="targetPoint" />
          </mxGeometry>
        </mxCell>
        <mxCell id="GKP_I2jnKU_a-lKC11bR-16" value="&lt;span style=&quot;font-size: 7px;&quot;&gt;液流过滤机（X101）&lt;/span&gt;" style="rounded=1;whiteSpace=wrap;html=1;align=center;" vertex="1" parent="1">
          <mxGeometry x="447" y="420" width="67" height="20" as="geometry" />
        </mxCell>
        <mxCell id="GKP_I2jnKU_a-lKC11bR-17" value="" style="endArrow=classic;html=1;rounded=0;exitX=0.5;exitY=1;exitDx=0;exitDy=0;entryX=0.5;entryY=0;entryDx=0;entryDy=0;" edge="1" parent="1" source="GKP_I2jnKU_a-lKC11bR-14" target="GKP_I2jnKU_a-lKC11bR-16">
          <mxGeometry width="50" height="50" relative="1" as="geometry">
            <mxPoint x="322" y="435" as="sourcePoint" />
            <mxPoint x="372" y="385" as="targetPoint" />
          </mxGeometry>
        </mxCell>
        <mxCell id="GKP_I2jnKU_a-lKC11bR-18" value="&lt;span style=&quot;font-size: 7px;&quot;&gt;精流槽（V104）&lt;/span&gt;" style="rounded=1;whiteSpace=wrap;html=1;align=center;" vertex="1" parent="1">
          <mxGeometry x="447" y="464" width="67" height="20" as="geometry" />
        </mxCell>
        <mxCell id="GKP_I2jnKU_a-lKC11bR-19" value="" style="endArrow=classic;html=1;rounded=0;exitX=0.5;exitY=1;exitDx=0;exitDy=0;entryX=0.5;entryY=0;entryDx=0;entryDy=0;" edge="1" parent="1" source="GKP_I2jnKU_a-lKC11bR-16" target="GKP_I2jnKU_a-lKC11bR-18">
          <mxGeometry width="50" height="50" relative="1" as="geometry">
            <mxPoint x="322" y="435" as="sourcePoint" />
            <mxPoint x="372" y="385" as="targetPoint" />
          </mxGeometry>
        </mxCell>
        <mxCell id="GKP_I2jnKU_a-lKC11bR-24" value="&lt;div&gt;&lt;font style=&quot;font-size: 10px;&quot;&gt;&lt;b&gt;&lt;span style=&quot;font-family: 宋体;&quot;&gt;从余热锅炉（F202）出来的温度 420℃左右、SO&lt;/span&gt;&lt;span style=&quot;font-family: 宋体;&quot;&gt;2 &lt;/span&gt;&lt;span style=&quot;font-family: 宋体;&quot;&gt;浓度在 10%左右的炉气进入&lt;br/&gt;&lt;/span&gt;&lt;/b&gt;&lt;/font&gt;&lt;/div&gt;&lt;div&gt;&lt;span style=&quot;font-family: 宋体;&quot;&gt;&lt;font style=&quot;font-size: 10px;&quot;&gt;&lt;b&gt;转化器(R301)一段&lt;/b&gt;&lt;/font&gt;&lt;/span&gt;&lt;/div&gt;" style="text;html=1;align=center;verticalAlign=middle;whiteSpace=wrap;rounded=0;" vertex="1" parent="1">
          <mxGeometry x="234" y="156" width="186" height="30" as="geometry" />
        </mxCell>
        <mxCell id="GKP_I2jnKU_a-lKC11bR-25" value="Text" style="text;html=1;align=center;verticalAlign=middle;whiteSpace=wrap;rounded=0;" vertex="1" parent="1">
          <mxGeometry x="284" y="294" width="60" height="30" as="geometry" />
        </mxCell>
      </root>
    </mxGraphModel>
  </diagram>
</mxfile>
